<?xml version="1.0" standalone="no"?>
<!DOCTYPE svg PUBLIC "-//W3C//DTD SVG 20010904//EN"
 "http://www.w3.org/TR/2001/REC-SVG-20010904/DTD/svg10.dtd">
<svg version="1.0" xmlns="http://www.w3.org/2000/svg"
 width="700.000000pt" height="700.000000pt" viewBox="0 0 700.000000 700.000000"
 preserveAspectRatio="xMidYMid meet">
<metadata>
Created by potrace 1.14, written by Peter Selinger 2001-2017
</metadata>
<g transform="translate(0.000000,700.000000) scale(0.100000,-0.100000)"
fill="#000000" stroke="none">
<path d="M2210 6293 c-231 -17 -421 -146 -523 -353 -80 -164 -117 -354 -117
-603 0 -198 41 -503 96 -721 8 -32 13 -60 11 -62 -2 -3 -43 -16 -91 -30 -199
-57 -439 -157 -619 -256 -573 -318 -747 -752 -462 -1154 96 -134 303 -299 514
-408 158 -82 403 -180 566 -226 44 -13 83 -26 88 -30 4 -3 -4 -53 -17 -111
-84 -350 -109 -756 -61 -997 48 -246 152 -425 305 -527 104 -69 192 -97 321
-103 335 -15 729 185 1188 602 l94 85 80 -75 c348 -327 728 -552 1021 -604
228 -40 437 21 586 170 121 121 192 281 226 511 22 154 15 468 -15 659 -19
121 -65 343 -77 375 -4 9 32 24 113 50 239 75 514 195 680 296 239 147 419
343 484 529 20 54 23 86 23 190 1 110 -3 134 -26 198 -63 175 -207 340 -420
482 -194 130 -486 262 -763 345 -49 15 -91 28 -92 29 -1 1 4 26 12 56 55 201
95 513 95 730 0 263 -30 420 -112 589 -43 89 -62 116 -132 185 -128 128 -249
176 -437 176 -167 0 -295 -34 -494 -130 -197 -95 -439 -266 -645 -456 -119
-110 -98 -108 -198 -17 -363 332 -724 544 -1002 591 -75 13 -150 18 -200 15z
m168 -288 c238 -50 551 -241 849 -520 l82 -76 -122 -142 c-132 -152 -381 -472
-402 -514 -1 -1 -62 -9 -136 -18 -177 -20 -430 -59 -576 -89 -65 -13 -121 -21
-124 -18 -11 12 -57 229 -80 382 -29 190 -31 463 -6 593 66 331 233 462 515
402z m2522 -17 c252 -117 325 -552 198 -1173 -17 -82 -33 -160 -35 -173 -5
-18 -10 -22 -27 -18 -62 18 -414 77 -561 95 -93 12 -189 24 -212 27 -40 5 -46
11 -103 89 -85 118 -282 363 -379 473 -45 51 -80 99 -78 106 8 20 237 219 342
297 357 264 667 365 855 277z m-1254 -943 c65 -76 214 -262 214 -267 0 -2
-161 -3 -359 -3 l-359 0 32 44 c42 59 238 296 289 348 l40 42 42 -47 c23 -26
69 -78 101 -117z m349 -553 l80 -7 115 -181 c140 -221 245 -404 363 -632 l89
-172 -87 -168 c-112 -214 -224 -409 -339 -592 -139 -219 -140 -220 -161 -225
-57 -15 -565 -23 -820 -14 -154 5 -286 12 -293 14 -49 17 -572 922 -572 990 0
18 122 256 218 425 87 154 137 237 249 413 l95 147 46 1 c26 1 110 5 187 9
148 9 694 3 830 -8z m-1523 -220 c-59 -97 -138 -235 -176 -305 -37 -70 -71
-129 -75 -132 -11 -6 -208 511 -199 520 10 10 479 92 535 94 18 1 7 -23 -85
-177z m2101 158 c122 -18 399 -69 404 -74 8 -8 -181 -526 -192 -526 -2 0 -36
60 -75 133 -40 72 -119 210 -176 305 -57 95 -104 174 -104 177 0 7 -8 8 143
-15z m-2789 -227 c46 -143 123 -346 202 -530 l73 -172 -68 -158 c-73 -169
-149 -367 -201 -525 -21 -64 -38 -98 -47 -98 -22 0 -297 94 -398 135 -477 197
-741 463 -695 699 50 255 394 503 950 687 80 26 147 48 150 49 3 0 19 -39 34
-87z m3663 23 c342 -115 623 -272 770 -430 71 -76 105 -132 128 -210 85 -291
-282 -610 -947 -825 -70 -23 -133 -41 -140 -41 -8 0 -29 46 -52 118 -44 135
-169 454 -226 578 l-39 84 46 103 c79 179 165 403 258 674 5 14 29 8 202 -51z
m-3152 -1187 c39 -72 118 -211 176 -308 59 -97 106 -177 105 -178 -6 -7 -498
77 -543 92 -9 3 -1 38 28 122 54 157 151 403 158 403 3 0 38 -59 76 -131z
m2551 -12 c75 -195 134 -371 127 -378 -13 -12 -279 -60 -510 -93 l-42 -6 78
128 c73 119 149 250 246 426 l38 69 14 -26 c7 -15 30 -69 49 -120z m-2741
-677 c170 -33 460 -76 582 -86 45 -4 85 -9 90 -13 5 -3 56 -69 113 -146 88
-117 224 -284 388 -474 l32 -38 -82 -74 c-316 -283 -536 -426 -779 -504 -67
-22 -105 -28 -184 -29 -94 -1 -104 1 -167 32 -81 39 -129 92 -175 187 -57 120
-77 239 -76 455 0 114 6 229 16 300 19 136 77 420 86 420 3 0 74 -13 156 -30z
m2974 -62 c50 -215 81 -456 81 -632 0 -482 -179 -720 -501 -666 -239 40 -556
227 -869 515 -47 43 -87 82 -88 86 -2 5 48 69 110 142 128 147 229 274 336
419 77 104 75 103 182 113 151 13 540 75 660 104 67 17 66 18 89 -81z m-1227
-73 c-30 -52 -337 -415 -351 -415 -13 0 -272 306 -352 415 -5 7 114 10 351 10
236 0 356 -3 352 -10z"/>
<path d="M3153 4026 c-104 -34 -205 -123 -250 -222 -34 -75 -42 -188 -18 -269
28 -100 103 -198 183 -239 26 -14 30 -21 35 -82 21 -223 236 -392 452 -356
140 23 241 96 301 217 26 53 38 91 41 137 5 63 6 65 49 92 59 37 101 88 138
166 28 59 31 74 31 165 0 93 -2 105 -32 166 -42 85 -111 154 -193 193 -60 29
-73 31 -170 31 -93 0 -112 -3 -161 -26 l-57 -27 -62 31 c-54 27 -75 32 -154
34 -57 2 -107 -2 -133 -11z m227 -112 l39 -16 -30 -41 c-34 -47 -69 -152 -69
-207 0 -33 -5 -41 -34 -60 -49 -30 -132 -124 -147 -165 -7 -19 -17 -35 -21
-35 -4 0 -26 16 -48 36 -120 108 -125 300 -12 417 86 89 209 116 322 71z m469
-17 c126 -59 193 -214 151 -353 -14 -46 -70 -128 -99 -144 -18 -9 -23 -6 -37
22 -34 66 -78 118 -135 158 -51 36 -59 46 -59 74 0 49 -27 143 -56 192 -15 25
-24 48 -20 51 3 3 27 12 53 19 60 17 143 9 202 -19z m-321 -116 c12 -21 25
-60 28 -85 l7 -46 -67 0 c-65 0 -66 0 -66 28 1 41 49 142 69 142 4 0 17 -18
29 -39z m12 -243 c0 -7 -11 -30 -23 -51 -25 -42 -30 -40 -61 20 -18 36 -13 41
47 42 23 1 37 -4 37 -11z m-179 -80 c12 -24 28 -50 36 -59 12 -15 9 -18 -27
-33 -22 -9 -65 -16 -95 -16 l-56 0 17 33 c13 26 91 117 101 117 1 0 12 -19 24
-42z m344 7 c30 -30 75 -102 75 -120 0 -9 -103 -5 -140 5 -56 16 -67 26 -52
47 6 10 22 37 34 61 12 23 28 42 35 42 7 0 28 -16 48 -35z m-173 -185 c50 -29
155 -53 210 -48 44 5 48 3 48 -17 0 -77 -65 -173 -151 -220 -48 -27 -63 -30
-139 -30 -91 0 -133 15 -198 70 -38 32 -92 137 -92 179 0 31 1 31 42 28 50 -5
140 13 188 39 45 23 52 23 92 -1z"/>
</g>
</svg>
