<svg xmlns="http://www.w3.org/2000/svg" viewBox="0 0 1448 1448" fill="#adba7e"><path d="M1101.68 940.78q-1.11.31-.82 1.44 15.24 59.09 21.12 119.28c3.97 40.58 2.83 83.93-6.91 124.47-7 29.16-19.95 57.76-41.5 78.97-38.25 37.67-90.99 43.85-141.59 29.31q-31.15-8.95-61.81-25.16c-52.87-27.96-102.06-68.01-145.2-110.22a.86.86 0 0 0-1.19-.01c-44.04 41.71-90.9 81.17-144.1 109.55-33.13 17.68-68.46 30.6-105.92 33.08q-5.76.38-18.26-.47c-44.89-3.02-82.85-28.42-103.9-67.38-16.79-31.07-24.22-66.91-26.18-101.93-3.56-63.53 6.52-127.91 22.29-189.47a1.34 1.34 0 0 0-.94-1.63q-58.31-16.04-113.52-41.32-37.07-16.97-70.53-40.25c-36.55-25.44-72.06-61.63-82.64-106.39-18.39-77.77 39.63-138.64 99.76-175.79 51.38-31.75 109.1-53.94 167.07-70.17a1.11 1.1-14.8 0 0 .78-1.33q-11.2-43.9-17.53-88.93c-6.97-49.59-8.61-100.8 2.02-149.69q5.32-24.47 15.88-46.23c20.59-42.48 58.99-70.38 106.57-74.14 29.21-2.32 60.59 4.78 87.94 15.57 38.07 15.03 73.46 36.79 105.9 61.58q39.64 30.29 75.02 64.91a1.13 1.13 0 0 0 1.58 0q35.69-34.85 75.13-64.97c33.12-25.29 68.28-46.82 106.5-61.78 23.31-9.13 47.72-14.92 72.29-15.53 72.05-1.78 118.89 46.21 135.64 113.37 11.99 48.07 11.22 98.93 5 147.72q-6.31 49.46-18.71 98.06a1.14 1.13-75 0 0 .79 1.37q46.6 13.1 91.76 31.85c43.14 17.91 85.33 40.76 120.16 71.84 45.67 40.76 72.66 96.18 50.32 157.31-8.29 22.69-24.09 44.04-41.65 61.14-25.47 24.8-55.69 44.81-87.33 60.82-42.68 21.6-87.36 38.07-133.29 51.15zM583.6 246.66c-22.88-15.02-47.29-27.74-73.29-36.47q-9.16-3.07-23.06-5.71c-25.77-4.89-51.12-2.25-70.93 16.6-16.48 15.66-24.77 37.71-29.33 59.46q-6.38 30.52-6.15 61.71c.38 50.47 9.47 99.95 21.4 149.33q.23.95 1.18.74c56.43-12.62 113.59-20.89 171.05-26.43a2.08 2.07 14.7 0 0 1.51-.88q50.04-71 108.61-135.15a.57.57 0 0 0-.02-.79c-31.08-30.29-64.66-58.58-100.97-82.41zm330.86-27.23q-27.1 12.19-51.83 28.69c-35.33 23.57-68.19 51.24-98.53 80.88a.77.77 0 0 0-.02 1.08c39.15 42.4 75.28 87.87 108.55 134.91a2.08 2.06 75.1 0 0 1.5.88c57.55 5.56 114.85 13.93 171.33 26.48a.64.63 13.2 0 0 .75-.46q11.5-45.24 17.43-91.15c4.41-34.09 5.61-69.34 1.14-103.49-5.61-42.89-25.05-91.33-75.28-94.59-25.02-1.63-50.59 5.77-75.04 16.77zm-265.1 240.74a.43.43 0 0 0 .37.69q74.51-3.24 149.01-.02a.49.49 0 0 0 .41-.79q-35.04-46.31-74.11-89.28a1.01 1-44.8 0 0-1.49 0q-39.18 42.96-74.19 89.4zM508.32 684.38q-9.87 19.03-19.08 38.39-.46.97.03 1.98 51.04 105.37 116.87 202.17.6.88 2.61 1.03c75.44 5.45 155.14 5.95 232.28-.12a2.18 2.17-75.1 0 0 1.64-.96q65.65-96.87 116.7-202.18a2.31 2.29 45.3 0 0 0-2.03Q908.3 617.43 842.7 520.59a1.99 1.98 75 0 0-1.5-.87c-77.41-5.92-156.03-5.7-233.46-.12q-1.25.09-1.78.88-53.63 79.08-97.64 163.9zM989.45 657a.27.27 0 0 0 .49-.02q22.72-53.74 40.44-109.33.28-.88-.62-1.08-56.75-12.5-114.46-19.43a.43.43 0 0 0-.41.66q40.07 63 74.56 129.2zm-527.36-5.68q33.26-63.25 71.46-123.3a.55.54-77.1 0 0-.52-.84q-57.63 6.93-114.31 19.4a.76.76 0 0 0-.56.97q17.64 55.43 40.31 109 .23.53.56.06 1.04-1.45 3.06-5.29zM262.64 850.97c32.16 14.26 65.81 25.93 99.65 35.52a1.13 1.12 16.2 0 0 1.38-.75c16.96-54.93 38.33-108.89 62.35-161.04a2.38 2.36 45.3 0 0 0-1.99c-24.04-52.24-45.41-106.24-62.51-161.28q-.25-.8-1.05-.57c-52.36 14.55-104.91 34.54-151.38 63.03-32.11 19.68-72.43 51.93-77.56 91.61-8.27 63.97 81.63 114.43 129.12 135.47zm816.35-270.89q-24.27 72.81-56.35 142.52-.53 1.14-.17 1.92c24.14 52.43 45.51 106.54 62.61 161.69a.61.61 0 0 0 .75.4c42.77-12.03 84.81-27.37 124.47-47.55 40.81-20.76 105.03-62.74 105.2-114.85.19-59.18-79-104.54-124.64-125.29q-51.06-23.21-105.19-38.21-.28-.08-.37.21-3.1 9.54-6.31 19.16zm-620.57 210.8c-14.96 35.62-28.51 71.88-40.11 108.71a.9.89-75 0 0 .66 1.15q56.79 12.58 114.51 19.75a.39.39 0 0 0 .38-.59q-39.89-62.59-74.11-128.65-.25-.48-.59-.64-.52-.25-.74.27zm530.74.11c-23.17 43.99-47.77 87.03-74.47 128.92a.39.39 0 0 0 .37.6q57.84-7.21 114.75-19.8a.75.75 0 0 0 .55-.96q-17.64-55.25-40.14-108.71-.48-1.14-1.06-.05zM499.5 1240.47c35.92-9.74 70.47-29.25 100.72-51.06q44.95-32.38 84.53-71.35a.29.28-44.3 0 0 .01-.4q-58.6-64.02-108.77-134.93-.81-1.14-2.23-1.27-86.12-7.69-170.65-26.41a.62.62 0 0 0-.73.45c-11.03 43.47-18.99 88.37-21.13 133.25-1.42 29.74.44 60.41 8.4 89.22 7.17 25.97 20.92 50.77 46.85 61.61 19.87 8.3 43.07 6.29 63 .89zm397.8-20.83c36.23 19.31 91.6 39.72 128.94 11.93 27.25-20.28 37.1-61 39.94-92.83 5.45-60.96-5.07-124.09-19.93-183.04a.84.84 0 0 0-.99-.61q-84.38 18.69-170.47 26.45c-1.02.09-1.93.5-2.48 1.28q-49.9 70.75-108.27 134.63a.62.6-47.1 0 0 .02.84c39.73 38.97 83.96 75.09 133.24 101.35zm-98.2-232.22q.47-.62-.31-.59-74.27 3.06-148.54.02-1.24-.05-.5.94 34.86 46.16 73.84 88.89a.93.93 0 0 0 1.38 0q39.15-42.9 74.13-89.26zM734.21 857.2c-50.83 6.49-95.6-35.11-92.65-86.7a.79.77-76.1 0 0-.44-.75c-26.79-12.67-44.76-38.15-47.37-67.75q-.38-4.33-.07-11.67c1.64-38.86 30.57-70.7 68.35-77.27 21.56-3.74 43.24 1.07 61.32 13.47q.92.63 1.86.02c16.29-10.49 35.08-14.35 54.31-12.27 37.47 4.06 68.07 34.72 72.29 72.07 1.29 11.39.53 23.45-3.28 35.19q-8.95 27.58-32.98 43.68-3.98 2.66-8.1 5.09-.43.26-.41.76c1.52 43.9-29.34 80.58-72.83 86.13zm-87.97-110.24c7.38-20.11 21.18-35.68 40.31-45.71a.88.87 76.8 0 0 .47-.76c.11-3.94-.13-8.33.19-11.84q2.44-26.19 19.68-46.26.33-.39-.11-.64c-26.77-15.37-59.42-8.75-78.58 15.21-23.2 29.02-14.6 71.43 16.9 90.4q.81.49 1.14-.4zm181.9-68.09c-11.1-37.33-52.79-53.67-86.72-36.74q-.84.41-.26 1.15 14.5 18.28 17.22 41.42c.53 4.47.38 9.51.37 14.29q0 .51.46.75c20.57 10.78 35.02 25.56 43.13 47.47a.73.73 0 0 0 1.1.35c22.28-15.55 32.52-42.36 24.7-68.69zm-91.3 14.4a.37.37 0 0 0 .43-.38q-.68-20.35-13.17-36.21a.59.58-44.2 0 0-.9-.01q-13.28 15.62-14.58 36.23a.68.68 0 0 0 .81.7q13.67-2.7 27.41-.33zm-3.11 22.25q.16-.17.18-.24a.53.51-78.6 0 0-.41-.64q-10.86-1.76-21.64.5a.4.39-14.9 0 0-.3.51q3.4 10.23 10.09 18.68a.73.73 0 0 0 1.14.01q6.91-8.33 10.78-18.58.05-.13.16-.24zm20.44 6.98c-3.23 9.64-8.69 18.63-15.19 26.33q-.32.38.12.62 20.04 11.25 42.86 6.89a.44.44 0 0 0 .34-.58q-7.59-21.74-27.27-33.58a.59.59 0 0 0-.86.32zm-63.28 1.29c-11.06 7.17-19.94 18.14-24.29 30.69q-.2.56.39.65 20.09 2.85 37.93-6.5a.25.25 0 0 0 .08-.38q-8.92-10.91-13.48-24.24a.43.42 63.9 0 0-.63-.22zm94.37 55.59q.05-.65-.09-1.14-.12-.4-.53-.32c-7.77 1.56-17.96 1.7-25.8.69q-19.98-2.59-36.44-14.09a1.48 1.47-43.5 0 0-1.63-.04c-16.71 10.57-37.35 15.39-56.91 11.94a.63.63 0 0 0-.74.65c1.66 36.69 33.89 64.17 70.83 58.22 28.14-4.53 49.07-27.56 51.31-55.91z"/></svg>