<svg xmlns="http://www.w3.org/2000/svg" viewBox="0 0 500 500" fill="#f89901"><path d="M146.09 299.37l-32.78-5.42q-1.74-.29-2.26 1.39c-2.47 7.91-11.57 11.88-18.99 8.56q-9.88-4.42-9.95-15.44a1.79 1.78 8.3 0 0-1.28-1.71c-8.48-2.51-16.55-4.78-24.73-8.72-12.91-6.2-33.89-14.74-33.37-32.48.33-11.18 10.47-17.71 18.63-23.33q4.21-2.9 9.27-5.15 15.05-6.71 28.38-10.06c12.03-3.04 24.33-6.55 36.13-8.69q13-2.37 26.08-4.3 2.35-.34 4.7-.13a.9.89 77.8 0 0 .85-1.33c-7.69-13.53-13.36-27.66-19.73-41.84q-9.25-20.61-15-42.47c-3.65-13.87-6.65-29.73-3.27-43.24 6.08-24.23 36.78-10.15 48.28-1.32 5.56 4.28 11.45 8.38 16.62 12.77 12.4 10.55 24.71 22.1 35.52 34.33l24 27.48c2.7 3.23 5.98 8.14 9.44 11.78a1.28 1.28 0 0 0 1.95-.11c4.68-6.22 9.05-12.31 14.42-17.77q2.62-2.66 5.07-5.74 6.65-8.34 14.24-15.83c3.41-3.36 6.46-7.1 9.86-10.55a1.27 1.26 68.1 0 0 .37-.87c.01-1.27-.61-2.62-.7-3.62-.75-8.78 3.75-17.01 13-18.28 3.02-.41 5.85.13 8.44 1.62a1.71 1.7-51.6 0 0 2.03-.24c4.04-3.82 8.9-6.65 13.22-10.14 11.27-9.09 36.42-25.02 49.91-10.81 5.54 5.84 6.33 15.27 5.79 23.3q-.65 9.64-2.55 17.16-6.88 27.16-17.46 53.08-1.15 2.8-3.9 8.2c-1.86 3.63-3.59 7.91-5.09 11.05q-5.18 10.86-10.45 21.98a1.01 1.01 0 0 0 .85 1.44c11.51.71 23.39 3.12 34.73 5.2 6.44 1.18 13.35 3.38 20.12 4.93q20.97 4.79 40.74 13.27 1.43.61 4.29 2.46c8.4 5.41 16.71 9.46 21.04 19.16q2.68 6 .75 12.24-2.99 9.63-9.35 14.01c-16.08 11.09-31.84 17.4-53.22 22.78-19.55 4.91-39.47 8.32-59.42 11.16a1.4 1.4 0 0 0-1.03 2.06c7.33 13.39 13.21 27.92 19.78 41.72a1.2 1.19 76.8 0 0 1.09.68q9.87-.18 14.43 8.62c3.91 7.57 1.06 14.57-4.18 20.11a1.72 1.72 0 0 0-.4 1.67c5.16 17.05 15.47 46.86 2.14 62.41-15.51 18.09-53.9-13.42-66.04-24.87-6.44-6.07-13.01-10.93-19.27-18.13-4.89-5.64-10.27-10.01-14.75-15.53-6.71-8.29-14.27-15.93-20.73-24.25q-4.1-5.28-8.27-10.36a1.34 1.33-43.8 0 0-2.03-.04c-7.19 8.03-13.11 17.1-20.7 24.6-6.55 6.48-11.69 13.81-18.56 20.32-6.86 6.5-13 13.52-20.4 19.6-4.92 4.04-9.62 9.22-14.74 12.91q-5.87 4.23-16.11 10.9c-11.6 7.56-34.33 17.86-42.2-.96-5.52-13.21-2.33-27.91.63-40.31 3.76-15.71 8.51-30.14 15.18-45.46q7.06-16.21 14.45-32.28 2.9-6.32 7-11.93a.79.78 22.8 0 0-.51-1.24zm.81-233.73c-7.19-4.96-26.59-13.11-30.81-.91-5.11 14.78.63 36.31 5.46 50.95q1.35 4.09 2.68 8.19 1.24 3.81 2.99 8.07c5.8 14.13 10.47 27.64 17.49 40.79q4.48 8.39 8.19 17.15c.67 1.58 1.61 2.79 3.35 2.61q30.48-3.05 56.75-3.82c1.42-.04 2.52-.54 3.21-1.7q2.5-4.19 5.16-7.47c5.91-7.27 11.36-14.79 16.71-22.47a1.16 1.15 42.3 0 0-.07-1.41q-5.83-6.9-11.4-14.43c-3.51-4.73-7.98-8.55-11.66-13.21q-8.15-10.34-11.72-13.46c-5.83-5.08-11.54-12.69-18.48-18.62q-4.63-3.96-8.24-7.56c-9.16-9.14-19.39-15.64-29.61-22.7zm207.38 80.55c8.95-20.2 16.59-42.29 18.52-64.45.52-6.03-.13-15.45-4.02-19.78-5.59-6.23-19.45-1.4-24.88 2.18-5.67 3.74-11.69 7.19-16.94 11.18q-5.42 4.1-10.73 8.24a.98.97-26.8 0 0-.34 1.02c1.74 6.18 4.06 10.2.12 16.41q-2.49 3.93-4.62 5.9c-4.7 4.36-13 3.93-17.75-.26a1.41 1.41 0 0 0-1.98.12c-6.33 7.07-13.56 14.01-19.38 20.81q-12.06 14.1-23.74 28.21a1.15 1.14-43.7 0 0-.04 1.42c3.62 4.81 6.7 9.53 10.77 14.37q5.84 6.94 10.49 14.76c1.39 2.34 2.21 2.31 4.74 2.38q28.53.76 56.9 3.87a1.21 1.2 17.7 0 0 1.19-.61c8.37-14.82 14.79-30.22 21.69-45.77zm-129.43 40.62a.86.86 0 0 0 .69 1.38l35.59-.06a.86.86 0 0 0 .68-1.38l-17.83-23.6a.86.86 0 0 0-1.38 0l-17.75 23.66zm-7.04 9.4c-10.49 16.42-22.46 32.1-31.93 49.16a2.11 2.11 0 0 0 .03 2.12q5.3 8.83 10.74 17.7c2.43 3.97 5.82 8 8.51 12.22 5.12 8.03 7.98 12.3 12.2 18.36 1.01 1.45 1.72 1.56 3.39 1.6q25.45.61 45.06-.19 2.1-.09 3.08-1.56 5.54-8.26 11.48-16.23 4.67-6.25 16.14-25.33c1.3-2.16 3.27-4.29 4.65-6.62a1.49 1.48 43.7 0 0-.04-1.6q-8.34-12.4-16.16-25.33c-4.01-6.65-9.24-12.28-13.08-18.96-1.41-2.47-3.27-6.32-5.63-6.38q-23.61-.53-46.76.1a2.08 2.06 15.6 0 0-1.68.94zM324.2 208.4q2.42-4.24 4.04-8.27a.77.77 0 0 0-.63-1.05q-24.96-2.58-50.05-3.48a.39.39 0 0 0-.34.6L305 238.45q.67 1.01 1.31-.02 9.1-14.63 17.89-30.03zm-165.39-9.56a.93.93 0 0 0-.75 1.39l21.82 37.78a.93.93 0 0 0 1.57.06l27.62-41.14a.93.93 0 0 0-.83-1.44l-49.43 3.35zm276.02 25.67c-7.33-3.45-11.84-5.82-17.86-7.69-25.66-7.98-52.21-12.41-79.04-16.54a2.13 2.12-71.1 0 0-2.19 1.08q-6.6 11.95-13.41 24.53c-4.04 7.46-8.59 13-12.02 20.14a1.34 1.33-40.4 0 0-.08.97q.48 1.67 1.62 3.41c8.4 12.84 15.47 27.26 23.29 41.03q.63 1.1 2.61.85 31.72-4.04 57.25-9.91c7.72-1.77 15.62-4.86 23.51-7.34q6.86-2.16 18.15-7.43 9.57-4.46 16.61-12.33c12.65-14.16-8.29-26.01-18.44-30.77zM80.7 279.33q1.72.72 2.86 1.04a.81.8 24.3 0 0 .89-.33c4.98-7.77 14.42-10.19 21.86-4.61 3.3 2.46 4.97 6.44 6.01 10.33q.37 1.37 1.78 1.58l34.22 5.06q1.91.28 2.8-1.43 4.71-9.07 9.37-17.89c1.89-3.55 4.52-6.66 6.45-10.18q4.42-8.07 9.11-15.76a1.45 1.44 46.8 0 0 .04-1.45c-5.58-10.31-12.44-20.88-17.6-30.37q-3.74-6.87-7.17-13.59a2.53 2.52 71.8 0 0-2.66-1.35c-26.49 4.39-52.12 8.23-77.69 16.29q-6.34 2-12.62 4.98c-8.37 3.96-17.31 7.68-23.62 14.67-15.03 16.66 11.01 29.77 22.81 34.71 6.98 2.92 16.21 5.38 23.16 8.3zm100.19-25.6a.41.41 0 0 0-.7.02L157.64 293a.41.41 0 0 0 .33.62l50.78 3.71a.41.41 0 0 0 .37-.63l-28.23-42.97zm126.47 2.26q-.32-1.02-.62-1.36-1.23-1.44-2.11.24c-3.04 5.82-7.98 12.16-10.44 15.95-5.61 8.63-10.6 17.45-17.31 25.25a.54.54 0 0 0 .43.89q24.82-.95 49.54-3.41a.9.9 0 0 0 .71-1.31q-3.13-5.96-6.22-11.84c-3.78-7.22-9.31-15.09-13.42-23.04q-.29-.55-.56-1.37zm32.7 60.1c-2.25-5.03-5.36-9.49-7.78-14.45a1.79 1.79 0 0 0-1.81-1q-28.41 3.06-57.47 3.87-1.68.04-2.62 1.32-3.23 4.41-6.32 8.91c-4.89 7.12-10.84 13.63-15.88 20.7a1.56 1.55-45.4 0 0 .01 1.83c5.31 7.23 11.74 13.98 16.94 20.44 6.6 8.2 12.67 14.36 20.85 23.54q8.85 9.93 24.64 24.13c3.19 2.87 6.64 5.36 9.81 8.2q8.98 8.05 19.58 13.77c5.93 3.2 11.64 6.22 17.49 7.34 8.9 1.7 13.84-5.71 14.33-13.69.91-14.88-2.7-30.69-7.3-44.76a.55.54 80 0 0-.51-.37q-12.66-.16-16.03-10.54c-2.19-6.73-.67-13.69 4.61-18.48a1.14 1.14 0 0 0 .29-1.26c-3.95-10.07-8.44-19.72-12.83-29.5zM139.09 330.1c-5.22 11.81-11.27 26.97-17.61 43.9q-4.16 11.11-7.21 30.78c-2.03 13.05-2.5 34.84 18.43 27.74 19.09-6.49 33.52-19.82 48.76-33.36 5.49-4.88 10.61-10.54 15.93-15.86 14.29-14.28 27.39-30.07 40.15-45.77a1.88 1.87 45.8 0 0 .03-2.33q-6.37-8.26-12.56-17.14-2.59-3.7-5.57-7.09c-1.35-1.54-3.83-6.35-5.94-6.41q-28.57-.87-57-3.83-1.12-.11-2.15.05-.51.08-.75.53c-3.61 6.76-6.62 13.63-10.37 20.48q-2.44 4.46-4.14 8.31zm122.96-23.91a.51.51 0 0 0-.26-.85q-.53-.11-1.29-.11-17.38-.06-34.8-.28a.92.91 70.8 0 0-.72 1.49c6 7.4 10.73 15.68 17.12 22.88a1.33 1.32-46.4 0 0 2.03-.06c6.15-7.72 11.19-15.93 17.92-23.07zm-17.77-86.37c.91-.52 1.67-1.48 2.46-1.95 14.63-8.81 29.5 3.41 28.65 18.86q-.7 12.87-12.18 18.04-.48.21-.54.73c-.34 3.05-.48 6.32-1.75 8.93-9.41 19.39-36.78 13.51-36.62-8.13a2.22 2.22 0 0 0-1.35-2.06q-8.84-3.76-11.06-13.41c-3.81-16.58 12.17-33.02 28.54-22.72q1.41.9 2.9 1.72.48.26.95-.01z"/></svg>